<?xml version="1.0" standalone="no"?>
<!DOCTYPE svg PUBLIC "-//W3C//DTD SVG 20010904//EN"
 "http://www.w3.org/TR/2001/REC-SVG-20010904/DTD/svg10.dtd">
<svg version="1.0" xmlns="http://www.w3.org/2000/svg"
 width="115.000000pt" height="115.000000pt" viewBox="0 0 115.000000 115.000000"
 preserveAspectRatio="xMidYMid meet">
<metadata>
Created by potrace 1.14, written by Peter Selinger 2001-2017
</metadata>
<g transform="translate(0.000000,115.000000) scale(0.100000,-0.100000)"
fill="#000000" stroke="none">
<path d="M275 1120 c-136 -16 -199 -61 -232 -168 -16 -50 -18 -99 -18 -382 0
-373 6 -413 74 -481 68 -68 108 -74 481 -74 373 0 413 6 481 74 68 68 74 108
74 481 0 373 -6 414 -74 481 -63 64 -105 71 -431 74 -157 2 -316 0 -355 -5z
m353 -30 l52 -30 0 -490 0 -490 -32 -20 c-18 -11 -36 -20 -40 -20 -5 0 -8 110
-8 245 l0 245 -30 0 -30 0 0 -245 c0 -135 -3 -245 -7 -245 -5 0 -23 9 -40 20
l-33 20 0 490 0 490 53 30 c28 16 54 30 57 30 3 0 29 -14 58 -30z m-240 -359
l-3 -100 -72 42 c-62 35 -73 45 -73 68 0 29 21 43 51 34 17 -6 19 0 19 50 l0
56 -70 -38 -70 -38 0 -65 0 -65 108 -61 107 -61 3 -218 2 -218 -22 15 c-13 8
-80 47 -150 88 l-128 73 0 129 0 130 58 -33 c95 -54 92 -50 92 -96 0 -46 -5
-50 -34 -28 -30 23 -36 19 -36 -22 0 -36 3 -40 63 -73 34 -19 65 -36 70 -38 4
-2 7 52 7 120 l0 124 -110 63 -110 62 0 108 0 107 148 85 147 85 3 -92 c1 -51
1 -138 0 -193z m519 197 l143 -82 0 -129 c0 -71 -3 -127 -7 -125 -5 2 -38 20
-75 41 -68 39 -68 39 -68 83 l0 45 30 -16 c40 -20 40 -20 40 23 0 36 -3 38
-70 75 l-70 38 0 -124 0 -124 110 -63 110 -63 0 -107 0 -107 -147 -86 -148
-85 -3 94 c-1 51 -1 138 0 192 l3 100 72 -42 c62 -35 73 -45 73 -68 0 -29 -24
-43 -54 -32 -14 5 -16 -2 -16 -51 0 -31 3 -55 8 -53 4 2 35 19 70 38 l62 35 0
65 -1 65 -107 61 -107 62 -3 211 c-1 116 1 211 5 211 4 0 72 -37 150 -82z"/>
<path d="M553 1023 c-10 -3 -13 -55 -13 -209 l0 -204 30 0 30 0 0 204 c0 177
-2 205 -16 210 -9 3 -16 6 -17 5 -1 0 -8 -3 -14 -6z"/>
</g>
</svg>
